<svg width="54" height="50" viewBox="0 0 54 50" fill="none" xmlns="http://www.w3.org/2000/svg">
<path d="M1.71674 21.0615V16.4741H1.70258C1.58931 16.5449 0.481396 17.3236 0.332729 17.4157V16.8989C0.474316 16.8104 1.55746 16.0458 1.70966 15.9538H2.18398V21.0615H1.71674ZM5.16155 21.1429C4.00054 21.1429 3.3103 20.12 3.3103 18.5059C3.3103 16.9024 4.00762 15.8724 5.16155 15.8724C6.31902 15.8724 7.00926 16.8989 7.00926 18.5023C7.00926 20.1164 6.32256 21.1429 5.16155 21.1429ZM5.16155 20.7182C6.02523 20.7182 6.52433 19.858 6.52433 18.5059C6.52433 17.1643 6.01815 16.3007 5.16155 16.3007C4.30849 16.3007 3.79878 17.1714 3.79878 18.5023C3.79878 19.858 4.29787 20.7182 5.16155 20.7182Z" fill="black"/>
<path d="M40.7599 40.5314C40.3307 39.7737 40.6112 38.872 41.4204 38.4048C42.1929 37.9588 43.103 38.1404 43.4941 38.8179C43.7738 39.3022 43.7667 39.7927 43.4717 40.9807L42.9827 42.9797L42.9898 42.9919L45.2889 41.6646L45.5048 42.0386L42.6202 43.704L42.4503 43.4097L43.0598 40.8548C43.3072 39.825 43.3144 39.4693 43.0914 39.0831C42.8118 38.5988 42.1631 38.4664 41.6205 38.7797C41.0534 39.1071 40.8592 39.7547 41.1646 40.2977L41.1663 40.3008L40.7617 40.5344L40.7599 40.5314ZM47.6521 40.8928C46.6466 41.4733 45.5374 40.9325 44.7303 39.5347C43.9286 38.146 44.0175 36.9053 45.0168 36.3284C46.0192 35.7496 47.1302 36.2935 47.932 37.6822C48.739 39.08 48.6576 40.3123 47.6521 40.8928ZM47.4397 40.525C48.1877 40.0931 48.1898 39.0987 47.5138 37.9277C46.843 36.7659 45.9728 36.271 45.231 36.6993C44.4922 37.1258 44.4861 38.1348 45.1516 39.2874C45.8295 40.4615 46.6917 40.9568 47.4397 40.525Z" fill="black"/>
<path d="M15.143 38.1489L15.3311 37.7839L15.8597 38.0564C16.4543 38.363 17.0515 38.2088 17.3126 37.7023C17.5656 37.2115 17.3727 36.674 16.7592 36.3578C16.1961 36.0674 15.6213 36.2012 15.3146 36.6803L14.8993 36.4662C15.3291 35.7639 16.1547 35.5682 16.9727 35.9899C17.7719 36.4019 18.1214 37.1993 17.7743 37.8726C17.4808 38.4421 16.9018 38.6614 16.2694 38.4668L16.2629 38.4793C16.9371 38.8787 17.1617 39.54 16.8308 40.1818C16.4351 40.9495 15.467 41.1434 14.5829 40.6876C13.6673 40.2157 13.3168 39.3739 13.6631 38.6325L14.0784 38.8466C13.8519 39.371 14.12 39.9711 14.7744 40.3085C15.4319 40.6475 16.1097 40.507 16.387 39.969C16.6854 39.3901 16.4203 38.8074 15.6904 38.4311L15.143 38.1489ZM18.3433 42.6261C17.3113 42.0942 17.1665 40.8686 17.9061 39.4339C18.6408 38.0087 19.7326 37.4127 20.7583 37.9414C21.7871 38.4718 21.9303 39.7004 21.1955 41.1257C20.456 42.5604 19.3752 43.1581 18.3433 42.6261ZM18.5379 42.2486C19.3056 42.6443 20.1433 42.1085 20.7629 40.9066C21.3776 39.7142 21.3234 38.7146 20.562 38.3221C19.8038 37.9312 18.9517 38.4716 18.3419 39.6546C17.7207 40.8596 17.7702 41.8528 18.5379 42.2486Z" fill="black"/>
<g clip-path="url(#clip0_483_1763)">
<path d="M46.6989 7.39782L31.4759 0.0488183C31.341 -0.0162728 31.1838 -0.0162728 31.0489 0.0488183L15.8259 7.39782C15.6562 7.47974 15.5483 7.65164 15.5483 7.8401V25.6877C15.5483 25.8761 15.6562 26.048 15.8259 26.13L31.0488 33.479C31.1163 33.5115 31.1894 33.5278 31.2624 33.5278C31.3354 33.5278 31.4084 33.5115 31.4759 33.479L46.6989 26.13C46.8686 26.048 46.9764 25.8761 46.9764 25.6877V7.84017C46.9764 7.65157 46.8685 7.47981 46.6989 7.39782ZM31.2624 1.03651L45.3557 7.8401L41.2703 9.81235C41.2444 9.79263 41.2171 9.77443 41.1871 9.75996L27.1896 3.00267L31.2624 1.03651ZM26.0805 3.55797L40.1532 10.3517L37.2709 11.7431L23.204 4.95219L26.0805 3.55797ZM40.4825 11.2834V16.4269L37.7902 17.7266V12.5831L40.4825 11.2834ZM45.9942 25.3795L31.7535 32.2542V15.4973L35.1504 13.8575C35.3946 13.7395 35.497 13.446 35.3791 13.2017C35.2612 12.9575 34.9676 12.8549 34.7233 12.9729L31.2624 14.6438L29.9006 13.9863C29.6563 13.8682 29.3627 13.9708 29.2448 14.215C29.1268 14.4593 29.2292 14.7529 29.4735 14.8709L30.7713 15.4973V32.2542L16.5306 25.3794V8.62257L27.3747 13.8577C27.4436 13.8909 27.5163 13.9067 27.5879 13.9067C27.7705 13.9067 27.9458 13.8044 28.0305 13.6289C28.1484 13.3847 28.046 13.0911 27.8018 12.9731L17.1691 7.8401L22.048 5.48477L36.8012 12.607C36.8033 12.61 36.8057 12.6127 36.808 12.6156V18.5091C36.808 18.6782 36.8949 18.8352 37.038 18.9252C37.1175 18.9751 37.2082 19.0003 37.2992 19.0003C37.372 19.0003 37.445 18.9841 37.5126 18.9514L41.1871 17.1775C41.3569 17.0956 41.4647 16.9238 41.4647 16.7352V10.8093L45.9942 8.62263V25.3795Z" fill="black"/>
<path d="M20.5837 23.4744L18.3497 22.3959C18.1053 22.2779 17.8118 22.3804 17.6939 22.6247C17.5759 22.8689 17.6783 23.1626 17.9226 23.2805L20.1566 24.359C20.2254 24.3922 20.2982 24.4079 20.3697 24.4079C20.5523 24.4079 20.7277 24.3057 20.8123 24.1302C20.9303 23.8859 20.8279 23.5924 20.5837 23.4744Z" fill="black"/>
<path d="M22.6397 22.1361L18.3528 20.0665C18.1084 19.9486 17.8149 20.051 17.6969 20.2953C17.5791 20.5396 17.6815 20.8332 17.9257 20.9512L22.2126 23.0207C22.2815 23.0539 22.3542 23.0697 22.4258 23.0697C22.6084 23.0697 22.7837 22.9674 22.8684 22.792C22.9863 22.5476 22.8839 22.254 22.6397 22.1361Z" fill="black"/>
</g>
<path d="M10.7137 26.4385C10.8022 26.527 10.9456 26.527 11.0341 26.4385L12.4757 24.9968C12.5642 24.9084 12.5642 24.7649 12.4757 24.6764C12.3873 24.588 12.2438 24.588 12.1554 24.6764L10.8739 25.9579L9.59237 24.6764C9.5039 24.588 9.36047 24.588 9.272 24.6764C9.18353 24.7649 9.18353 24.9084 9.272 24.9968L10.7137 26.4385ZM11.0341 7.995C10.9456 7.90654 10.8022 7.90654 10.7137 7.995L9.272 9.43669C9.18353 9.52516 9.18353 9.6686 9.272 9.75706C9.36047 9.84554 9.5039 9.84554 9.59237 9.75706L10.8739 8.47557L12.1554 9.75706C12.2438 9.84554 12.3873 9.84554 12.4757 9.75706C12.5642 9.6686 12.5642 9.52516 12.4757 9.43669L11.0341 7.995ZM10.8739 26.2783L11.1004 26.2783L11.1004 8.15519L10.8739 8.15519L10.6473 8.15519L10.6473 26.2783L10.8739 26.2783Z" fill="#111111"/>
<path d="M28.9988 38.1619C29.1174 38.1219 29.181 37.9934 29.141 37.8748L28.489 35.943C28.449 35.8245 28.3204 35.7608 28.2019 35.8008C28.0834 35.8408 28.0197 35.9694 28.0597 36.0879L28.6393 37.8051L26.9221 38.3846C26.8036 38.4246 26.7399 38.5532 26.7799 38.6717C26.8199 38.7903 26.9485 38.8539 27.067 38.8139L28.9988 38.1619ZM12.6137 29.6887C12.4952 29.7287 12.4315 29.8573 12.4715 29.9758L13.1235 31.9076C13.1636 32.0261 13.2921 32.0898 13.4106 32.0498C13.5292 32.0098 13.5928 31.8813 13.5528 31.7627L12.9733 30.0456L14.6904 29.466C14.809 29.426 14.8726 29.2975 14.8326 29.1789C14.7926 29.0604 14.6641 28.9967 14.5455 29.0367L12.6137 29.6887ZM28.9264 37.9473L29.0269 37.7443L12.7867 29.7004L12.6862 29.9034L12.5856 30.1064L28.8258 38.1503L28.9264 37.9473Z" fill="#111111"/>
<path d="M49.8438 29.9718C49.8818 29.8526 49.816 29.7252 49.6968 29.6872L47.7541 29.0684C47.6349 29.0304 47.5075 29.0962 47.4695 29.2154C47.4315 29.3347 47.4974 29.4621 47.6166 29.5001L49.3434 30.0502L48.7933 31.777C48.7553 31.8962 48.8212 32.0236 48.9404 32.0616C49.0596 32.0996 49.187 32.0337 49.225 31.9145L49.8438 29.9718ZM33.3119 38.1549C33.274 38.2741 33.3398 38.4015 33.459 38.4395L35.4017 39.0583C35.5209 39.0963 35.6483 39.0305 35.6863 38.9113C35.7243 38.792 35.6584 38.6646 35.5392 38.6266L33.8124 38.0765L34.3625 36.3497C34.4005 36.2305 34.3346 36.1031 34.2154 36.0651C34.0962 36.0271 33.9688 36.093 33.9308 36.2122L33.3119 38.1549ZM49.628 29.9031L49.524 29.7018L33.4238 38.0224L33.5278 38.2236L33.6318 38.4249L49.732 30.1043L49.628 29.9031Z" fill="#111111"/>
<defs>
<clipPath id="clip0_483_1763">
<rect width="33.5278" height="33.5278" fill="white" transform="translate(14.4985)"/>
</clipPath>
</defs>
</svg>
