<svg width="54" height="50" viewBox="0 0 54 50" fill="none" xmlns="http://www.w3.org/2000/svg">
<path d="M0.407062 17.3838C0.414142 16.513 1.10792 15.8724 2.04239 15.8724C2.93439 15.8724 3.6317 16.4847 3.6317 17.267C3.6317 17.8263 3.38039 18.2475 2.53087 19.1289L1.10792 20.6155V20.6297H3.76267V21.0615H0.43184V20.7217L2.23707 18.8138C2.96625 18.0457 3.15031 17.7413 3.15031 17.2953C3.15031 16.736 2.65475 16.2971 2.02823 16.2971C1.37339 16.2971 0.881379 16.7608 0.874299 17.3838V17.3873H0.407062V17.3838ZM6.19514 21.1429C5.03412 21.1429 4.34389 20.12 4.34389 18.5059C4.34389 16.9024 5.0412 15.8724 6.19514 15.8724C7.35261 15.8724 8.04285 16.8989 8.04285 18.5023C8.04285 20.1164 7.35615 21.1429 6.19514 21.1429ZM6.19514 20.7182C7.05882 20.7182 7.55791 19.858 7.55791 18.5059C7.55791 17.1643 7.05174 16.3007 6.19514 16.3007C5.34207 16.3007 4.83236 17.1714 4.83236 18.5023C4.83236 19.858 5.33146 20.7182 6.19514 20.7182Z" fill="black"/>
<path d="M44.7201 42.4916L44.1431 41.4923L41.8992 42.7878L41.678 42.4046C41.692 41.3175 41.7705 40.1155 41.9573 38.1806L42.5704 37.8267L44.3366 40.886L44.9957 40.5055L45.2099 40.8764L44.5508 41.2569L45.1278 42.2562L44.7201 42.4916ZM42.101 42.1604L42.1081 42.1727L43.9289 41.1214L42.375 38.4299L42.3689 38.4335C42.2048 40.0323 42.1283 41.1882 42.101 42.1604ZM47.8422 40.7831C46.8367 41.3636 45.7274 40.8228 44.9204 39.425C44.1187 38.0363 44.2075 36.7956 45.2069 36.2186C46.2093 35.6399 47.3203 36.1838 48.122 37.5724C48.9291 38.9703 48.8476 40.2026 47.8422 40.7831ZM47.6298 40.4152C48.3777 39.9834 48.3799 38.989 47.7038 37.818C47.0331 36.6562 46.1629 36.1613 45.421 36.5896C44.6822 37.0161 44.6762 38.0251 45.3417 39.1777C46.0195 40.3517 46.8818 40.8471 47.6298 40.4152Z" fill="black"/>
<path d="M14.6395 40.7168C13.8089 40.2887 13.4426 39.4388 13.7639 38.6765L14.1855 38.8938C13.9825 39.4343 14.2569 40.0377 14.8421 40.3394C15.5185 40.6881 16.2464 40.458 16.5902 39.791C16.9325 39.1272 16.7025 38.3914 16.0449 38.0524C15.5856 37.8156 15.0772 37.8283 14.6799 38.0815L14.2678 37.869L15.8217 35.4881L18.3386 36.7857L18.1408 37.1695L15.9793 36.0553L14.9449 37.6446L14.9575 37.6511C15.3367 37.4563 15.8478 37.4769 16.3071 37.7137C17.1724 38.1597 17.477 39.1291 17.0261 40.0038C16.5639 40.9005 15.5677 41.1953 14.6395 40.7168ZM18.3495 42.6294C17.3176 42.0974 17.1728 40.8719 17.9124 39.4372C18.6471 38.0119 19.7389 37.4159 20.7646 37.9446C21.7934 38.475 21.9365 39.7037 21.2018 41.1289C20.4622 42.5636 19.3815 43.1614 18.3495 42.6294ZM18.5442 42.2518C19.3119 42.6476 20.1496 42.1117 20.7692 40.9099C21.3839 39.7175 21.3297 38.7178 20.5683 38.3253C19.8101 37.9345 18.958 38.4749 18.3482 39.6579C17.727 40.8629 17.7765 41.8561 18.5442 42.2518Z" fill="black"/>
<g clip-path="url(#clip0_483_1771)">
<path d="M46.6989 7.39782L31.4759 0.0488183C31.341 -0.0162728 31.1838 -0.0162728 31.0489 0.0488183L15.8259 7.39782C15.6562 7.47974 15.5483 7.65164 15.5483 7.8401V25.6877C15.5483 25.8761 15.6562 26.048 15.8259 26.13L31.0488 33.479C31.1163 33.5115 31.1894 33.5278 31.2624 33.5278C31.3354 33.5278 31.4084 33.5115 31.4759 33.479L46.6989 26.13C46.8686 26.048 46.9764 25.8761 46.9764 25.6877V7.84017C46.9764 7.65157 46.8685 7.47981 46.6989 7.39782ZM31.2624 1.03651L45.3557 7.8401L41.2703 9.81235C41.2444 9.79263 41.2171 9.77443 41.1871 9.75996L27.1896 3.00267L31.2624 1.03651ZM26.0805 3.55797L40.1532 10.3517L37.2709 11.7431L23.204 4.95219L26.0805 3.55797ZM40.4825 11.2834V16.4269L37.7902 17.7266V12.5831L40.4825 11.2834ZM45.9942 25.3795L31.7535 32.2542V15.4973L35.1504 13.8575C35.3946 13.7395 35.497 13.446 35.3791 13.2017C35.2612 12.9575 34.9676 12.8549 34.7233 12.9729L31.2624 14.6438L29.9006 13.9863C29.6563 13.8682 29.3627 13.9708 29.2448 14.215C29.1268 14.4593 29.2292 14.7529 29.4735 14.8709L30.7713 15.4973V32.2542L16.5306 25.3794V8.62257L27.3747 13.8577C27.4436 13.8909 27.5163 13.9067 27.5879 13.9067C27.7705 13.9067 27.9458 13.8044 28.0305 13.6289C28.1484 13.3847 28.046 13.0911 27.8018 12.9731L17.1691 7.8401L22.048 5.48477L36.8012 12.607C36.8033 12.61 36.8057 12.6127 36.808 12.6156V18.5091C36.808 18.6782 36.8949 18.8352 37.038 18.9252C37.1175 18.9751 37.2082 19.0003 37.2992 19.0003C37.372 19.0003 37.445 18.9841 37.5126 18.9514L41.1871 17.1775C41.3569 17.0956 41.4647 16.9238 41.4647 16.7352V10.8093L45.9942 8.62263V25.3795Z" fill="black"/>
<path d="M20.5837 23.4744L18.3497 22.3959C18.1053 22.2779 17.8118 22.3804 17.6939 22.6247C17.5759 22.8689 17.6783 23.1626 17.9226 23.2805L20.1566 24.359C20.2254 24.3922 20.2982 24.4079 20.3697 24.4079C20.5523 24.4079 20.7277 24.3057 20.8123 24.1302C20.9303 23.8859 20.8279 23.5924 20.5837 23.4744Z" fill="black"/>
<path d="M22.6397 22.1361L18.3528 20.0665C18.1084 19.9486 17.8149 20.051 17.6969 20.2953C17.5791 20.5396 17.6815 20.8332 17.9257 20.9512L22.2126 23.0207C22.2815 23.0539 22.3542 23.0697 22.4258 23.0697C22.6084 23.0697 22.7837 22.9674 22.8684 22.792C22.9863 22.5476 22.8839 22.254 22.6397 22.1361Z" fill="black"/>
</g>
<path d="M10.7137 26.4385C10.8022 26.527 10.9456 26.527 11.0341 26.4385L12.4757 24.9968C12.5642 24.9084 12.5642 24.7649 12.4757 24.6764C12.3873 24.588 12.2438 24.588 12.1554 24.6764L10.8739 25.9579L9.59237 24.6764C9.5039 24.588 9.36047 24.588 9.272 24.6764C9.18353 24.7649 9.18353 24.9084 9.272 24.9968L10.7137 26.4385ZM11.0341 7.995C10.9456 7.90654 10.8022 7.90654 10.7137 7.995L9.272 9.43669C9.18353 9.52516 9.18353 9.6686 9.272 9.75706C9.36047 9.84554 9.5039 9.84554 9.59237 9.75706L10.8739 8.47557L12.1554 9.75706C12.2438 9.84554 12.3873 9.84554 12.4757 9.75706C12.5642 9.6686 12.5642 9.52516 12.4757 9.43669L11.0341 7.995ZM10.8739 26.2783L11.1004 26.2783L11.1004 8.15519L10.8739 8.15519L10.6473 8.15519L10.6473 26.2783L10.8739 26.2783Z" fill="#111111"/>
<path d="M28.9988 38.1619C29.1174 38.1219 29.181 37.9934 29.141 37.8748L28.489 35.943C28.449 35.8245 28.3204 35.7608 28.2019 35.8008C28.0834 35.8408 28.0197 35.9694 28.0597 36.0879L28.6393 37.8051L26.9221 38.3846C26.8036 38.4246 26.7399 38.5532 26.7799 38.6717C26.8199 38.7903 26.9485 38.8539 27.067 38.8139L28.9988 38.1619ZM12.6137 29.6887C12.4952 29.7287 12.4315 29.8573 12.4715 29.9758L13.1235 31.9076C13.1636 32.0261 13.2921 32.0898 13.4106 32.0498C13.5292 32.0098 13.5928 31.8813 13.5528 31.7627L12.9733 30.0456L14.6904 29.466C14.809 29.426 14.8726 29.2975 14.8326 29.1789C14.7926 29.0604 14.6641 28.9967 14.5455 29.0367L12.6137 29.6887ZM28.9264 37.9473L29.0269 37.7443L12.7867 29.7004L12.6862 29.9034L12.5856 30.1064L28.8258 38.1503L28.9264 37.9473Z" fill="#111111"/>
<path d="M49.8438 29.9718C49.8818 29.8526 49.816 29.7252 49.6968 29.6872L47.7541 29.0684C47.6349 29.0304 47.5075 29.0962 47.4695 29.2154C47.4315 29.3347 47.4974 29.4621 47.6166 29.5001L49.3434 30.0502L48.7933 31.777C48.7553 31.8962 48.8212 32.0236 48.9404 32.0616C49.0596 32.0996 49.187 32.0337 49.225 31.9145L49.8438 29.9718ZM33.3119 38.1549C33.274 38.2741 33.3398 38.4015 33.459 38.4395L35.4017 39.0583C35.5209 39.0963 35.6483 39.0305 35.6863 38.9113C35.7243 38.792 35.6584 38.6646 35.5392 38.6266L33.8124 38.0765L34.3625 36.3497C34.4005 36.2305 34.3346 36.1031 34.2154 36.0651C34.0962 36.0271 33.9688 36.093 33.9308 36.2122L33.3119 38.1549ZM49.628 29.9031L49.524 29.7018L33.4238 38.0224L33.5278 38.2236L33.6318 38.4249L49.732 30.1043L49.628 29.9031Z" fill="#111111"/>
<defs>
<clipPath id="clip0_483_1771">
<rect width="33.5278" height="33.5278" fill="white" transform="translate(14.4985)"/>
</clipPath>
</defs>
</svg>
