<svg width="54" height="50" viewBox="0 0 54 50" fill="none" xmlns="http://www.w3.org/2000/svg">
<path d="M1.41233 18.6298V18.2192H2.00699C2.67599 18.2192 3.13615 17.8086 3.13615 17.2387C3.13615 16.6865 2.71847 16.2971 2.02823 16.2971C1.39463 16.2971 0.945093 16.6794 0.891998 17.2458H0.424761C0.484935 16.4246 1.12916 15.8724 2.04947 15.8724C2.94855 15.8724 3.62463 16.421 3.62463 17.1785C3.62463 17.8192 3.21048 18.2793 2.55918 18.3961V18.4103C3.34145 18.4563 3.84409 18.9413 3.84409 19.6634C3.84409 20.527 3.07244 21.1429 2.07779 21.1429C1.04774 21.1429 0.350428 20.5554 0.318571 19.7377H0.785807C0.824744 20.3076 1.338 20.7182 2.07425 20.7182C2.81404 20.7182 3.35207 20.2828 3.35207 19.6775C3.35207 19.0262 2.84944 18.6298 2.02823 18.6298H1.41233ZM6.30841 21.1429C5.14739 21.1429 4.45716 20.12 4.45716 18.5059C4.45716 16.9024 5.15447 15.8724 6.30841 15.8724C7.46588 15.8724 8.15612 16.8989 8.15612 18.5023C8.15612 20.1164 7.46942 21.1429 6.30841 21.1429ZM6.30841 20.7182C7.17209 20.7182 7.67118 19.858 7.67118 18.5059C7.67118 17.1643 7.16501 16.3007 6.30841 16.3007C5.45534 16.3007 4.94563 17.1714 4.94563 18.5023C4.94563 19.858 5.44473 20.7182 6.30841 20.7182Z" fill="black"/>
<path d="M44.2151 42.8772C43.6204 43.2205 42.9626 43.1997 42.3801 42.8208C41.9808 42.5894 41.6226 42.1955 41.3022 41.6406C40.4456 40.1569 40.5621 38.9003 41.6105 38.295C42.3462 37.8703 43.1669 37.9891 43.6837 38.594L43.2606 38.8382C42.8901 38.4513 42.3151 38.3828 41.8216 38.6677C41.0123 39.1349 40.9848 40.1563 41.7423 41.4683L41.7515 41.463C41.6456 40.862 41.9716 40.216 42.5694 39.8709C43.4093 39.3859 44.3988 39.6485 44.8819 40.4853C45.3828 41.3529 45.101 42.3657 44.2151 42.8772ZM43.9961 42.505C44.6184 42.1457 44.8239 41.369 44.4629 40.7436C44.0965 40.1091 43.3567 39.9108 42.7161 40.2807C42.0846 40.6453 41.8636 41.4023 42.2105 42.0032C42.5822 42.6469 43.3616 42.8713 43.9961 42.505ZM47.8176 40.7973C46.8122 41.3778 45.7029 40.837 44.8959 39.4391C44.0941 38.0505 44.183 36.8098 45.1823 36.2328C46.1847 35.6541 47.2958 36.1979 48.0975 37.5866C48.9045 38.9844 48.8231 40.2168 47.8176 40.7973ZM47.6053 40.4294C48.3532 39.9976 48.3554 39.0031 47.6793 37.8321C47.0085 36.6703 46.1383 36.1754 45.3965 36.6037C44.6577 37.0303 44.6517 38.0392 45.3171 39.1918C45.995 40.3659 46.8573 40.8612 47.6053 40.4294Z" fill="black"/>
<path d="M14.6395 40.7168C13.6862 40.2254 13.3046 39.3357 13.6954 38.5775C13.9906 38.0049 14.6397 37.7501 15.3103 37.9325L15.3151 37.9231C14.8753 37.5171 14.7476 36.9614 14.999 36.4738C15.3525 35.7879 16.2176 35.6007 17.0545 36.0321C17.8946 36.4652 18.2376 37.2752 17.884 37.9611C17.6359 38.4424 17.1092 38.6607 16.5233 38.5459L16.5184 38.5553C17.056 38.9957 17.2233 39.6753 16.9298 40.2448C16.5373 41.0062 15.596 41.2099 14.6395 40.7168ZM14.8341 40.3393C15.5358 40.701 16.2232 40.5416 16.5054 39.9942C16.786 39.4499 16.5041 38.8148 15.8057 38.4547C15.1103 38.0963 14.4263 38.2335 14.1457 38.7778C13.8635 39.3252 14.1325 39.9776 14.8341 40.3393ZM16.0035 38.0709C16.595 38.3758 17.1918 38.2533 17.4383 37.7751C17.6897 37.2874 17.4687 36.7195 16.8615 36.4065C16.2574 36.0951 15.6604 36.2413 15.409 36.729C15.1625 37.2072 15.4089 37.7643 16.0035 38.0709ZM18.4313 42.6715C17.3994 42.1396 17.2546 40.914 17.9942 39.4794C18.7289 38.0541 19.8207 37.4581 20.8464 37.9868C21.8752 38.5172 22.0183 39.7459 21.2836 41.1711C20.544 42.6058 19.4633 43.2035 18.4313 42.6715ZM18.626 42.294C19.3937 42.6897 20.2314 42.1539 20.851 40.952C21.4657 39.7596 21.4115 38.76 20.6501 38.3675C19.8919 37.9766 19.0398 38.5171 18.43 39.7C17.8088 40.905 17.8583 41.8983 18.626 42.294Z" fill="black"/>
<g clip-path="url(#clip0_483_1793)">
<path d="M46.6989 7.39782L31.4759 0.0488183C31.341 -0.0162728 31.1838 -0.0162728 31.0489 0.0488183L15.8259 7.39782C15.6562 7.47974 15.5483 7.65164 15.5483 7.8401V25.6877C15.5483 25.8761 15.6562 26.048 15.8259 26.13L31.0488 33.479C31.1163 33.5115 31.1894 33.5278 31.2624 33.5278C31.3354 33.5278 31.4084 33.5115 31.4759 33.479L46.6989 26.13C46.8686 26.048 46.9764 25.8761 46.9764 25.6877V7.84017C46.9764 7.65157 46.8685 7.47981 46.6989 7.39782ZM31.2624 1.03651L45.3557 7.8401L41.2703 9.81235C41.2444 9.79263 41.2171 9.77443 41.1871 9.75996L27.1896 3.00267L31.2624 1.03651ZM26.0805 3.55797L40.1532 10.3517L37.2709 11.7431L23.204 4.95219L26.0805 3.55797ZM40.4825 11.2834V16.4269L37.7902 17.7266V12.5831L40.4825 11.2834ZM45.9942 25.3795L31.7535 32.2542V15.4973L35.1504 13.8575C35.3946 13.7395 35.497 13.446 35.3791 13.2017C35.2612 12.9575 34.9676 12.8549 34.7233 12.9729L31.2624 14.6438L29.9006 13.9863C29.6563 13.8682 29.3627 13.9708 29.2448 14.215C29.1268 14.4593 29.2292 14.7529 29.4735 14.8709L30.7713 15.4973V32.2542L16.5306 25.3794V8.62257L27.3747 13.8577C27.4436 13.8909 27.5163 13.9067 27.5879 13.9067C27.7705 13.9067 27.9458 13.8044 28.0305 13.6289C28.1484 13.3847 28.046 13.0911 27.8018 12.9731L17.1691 7.8401L22.048 5.48477L36.8012 12.607C36.8033 12.61 36.8057 12.6127 36.808 12.6156V18.5091C36.808 18.6782 36.8949 18.8352 37.038 18.9252C37.1175 18.9751 37.2082 19.0003 37.2992 19.0003C37.372 19.0003 37.445 18.9841 37.5126 18.9514L41.1871 17.1775C41.3569 17.0956 41.4647 16.9238 41.4647 16.7352V10.8093L45.9942 8.62263V25.3795Z" fill="black"/>
<path d="M20.5837 23.4744L18.3497 22.3959C18.1053 22.2779 17.8118 22.3804 17.6939 22.6247C17.5759 22.8689 17.6783 23.1626 17.9226 23.2805L20.1566 24.359C20.2254 24.3922 20.2982 24.4079 20.3697 24.4079C20.5523 24.4079 20.7277 24.3057 20.8123 24.1302C20.9303 23.8859 20.8279 23.5924 20.5837 23.4744Z" fill="black"/>
<path d="M22.6397 22.1361L18.3528 20.0665C18.1084 19.9486 17.8149 20.051 17.6969 20.2953C17.5791 20.5396 17.6815 20.8332 17.9257 20.9512L22.2126 23.0207C22.2815 23.0539 22.3542 23.0697 22.4258 23.0697C22.6084 23.0697 22.7837 22.9674 22.8684 22.792C22.9863 22.5476 22.8839 22.254 22.6397 22.1361Z" fill="black"/>
</g>
<path d="M10.7137 26.4385C10.8022 26.527 10.9456 26.527 11.0341 26.4385L12.4757 24.9968C12.5642 24.9084 12.5642 24.7649 12.4757 24.6764C12.3873 24.588 12.2438 24.588 12.1554 24.6764L10.8739 25.9579L9.59237 24.6764C9.5039 24.588 9.36047 24.588 9.272 24.6764C9.18353 24.7649 9.18353 24.9084 9.272 24.9968L10.7137 26.4385ZM11.0341 7.995C10.9456 7.90654 10.8022 7.90654 10.7137 7.995L9.272 9.43669C9.18353 9.52516 9.18353 9.6686 9.272 9.75706C9.36047 9.84554 9.5039 9.84554 9.59237 9.75706L10.8739 8.47557L12.1554 9.75706C12.2438 9.84554 12.3873 9.84554 12.4757 9.75706C12.5642 9.6686 12.5642 9.52516 12.4757 9.43669L11.0341 7.995ZM10.8739 26.2783L11.1004 26.2783L11.1004 8.15519L10.8739 8.15519L10.6473 8.15519L10.6473 26.2783L10.8739 26.2783Z" fill="#111111"/>
<path d="M28.9988 38.1619C29.1174 38.1219 29.181 37.9934 29.141 37.8748L28.489 35.943C28.449 35.8245 28.3204 35.7608 28.2019 35.8008C28.0834 35.8408 28.0197 35.9694 28.0597 36.0879L28.6393 37.8051L26.9221 38.3846C26.8036 38.4246 26.7399 38.5532 26.7799 38.6717C26.8199 38.7903 26.9485 38.8539 27.067 38.8139L28.9988 38.1619ZM12.6137 29.6887C12.4952 29.7287 12.4315 29.8573 12.4715 29.9758L13.1235 31.9076C13.1636 32.0261 13.2921 32.0898 13.4106 32.0498C13.5292 32.0098 13.5928 31.8813 13.5528 31.7627L12.9733 30.0456L14.6904 29.466C14.809 29.426 14.8726 29.2975 14.8326 29.1789C14.7926 29.0604 14.6641 28.9967 14.5455 29.0367L12.6137 29.6887ZM28.9264 37.9473L29.0269 37.7443L12.7867 29.7004L12.6862 29.9034L12.5856 30.1064L28.8258 38.1503L28.9264 37.9473Z" fill="#111111"/>
<path d="M49.8438 29.9718C49.8818 29.8526 49.816 29.7252 49.6968 29.6872L47.7541 29.0684C47.6349 29.0304 47.5075 29.0962 47.4695 29.2154C47.4315 29.3347 47.4974 29.4621 47.6166 29.5001L49.3434 30.0502L48.7933 31.777C48.7553 31.8962 48.8212 32.0236 48.9404 32.0616C49.0596 32.0996 49.187 32.0337 49.225 31.9145L49.8438 29.9718ZM33.3119 38.1549C33.274 38.2741 33.3398 38.4015 33.459 38.4395L35.4017 39.0583C35.5209 39.0963 35.6483 39.0305 35.6863 38.9113C35.7243 38.792 35.6584 38.6646 35.5392 38.6266L33.8124 38.0765L34.3625 36.3497C34.4005 36.2305 34.3346 36.1031 34.2154 36.0651C34.0962 36.0271 33.9688 36.093 33.9308 36.2122L33.3119 38.1549ZM49.628 29.9031L49.524 29.7018L33.4238 38.0224L33.5278 38.2236L33.6318 38.4249L49.732 30.1043L49.628 29.9031Z" fill="#111111"/>
<defs>
<clipPath id="clip0_483_1793">
<rect width="33.5278" height="33.5278" fill="white" transform="translate(14.4985)"/>
</clipPath>
</defs>
</svg>
