<svg width="28" height="28" viewBox="0 0 28 28" fill="none" xmlns="http://www.w3.org/2000/svg">
<path fill-rule="evenodd" clip-rule="evenodd" d="M11.6008 3.79175H16.3991C18.5432 3.79173 20.2414 3.79172 21.5705 3.97041C22.9383 4.15431 24.0455 4.54178 24.9185 5.41487C25.7916 6.28796 26.1791 7.39506 26.363 8.76289C26.4685 9.5479 26.5117 10.4617 26.5294 11.5201C26.5375 11.5678 26.5417 11.6168 26.5417 11.6667C26.5417 11.7079 26.5388 11.7483 26.5333 11.788C26.5417 12.448 26.5417 13.1622 26.5417 13.9343V14.0659C26.5417 16.21 26.5417 17.9082 26.363 19.2373C26.1791 20.6051 25.7916 21.7122 24.9185 22.5853C24.0455 23.4584 22.9383 23.8459 21.5705 24.0298C20.2414 24.2085 18.5432 24.2084 16.3991 24.2084H11.6009C9.45679 24.2084 7.75855 24.2085 6.42947 24.0298C5.06164 23.8459 3.95454 23.4584 3.08145 22.5853C2.20836 21.7122 1.82089 20.6051 1.63699 19.2373C1.4583 17.9082 1.45831 16.21 1.45833 14.0659V13.9343C1.45832 13.1622 1.45832 12.448 1.46665 11.7879C1.46117 11.7483 1.45833 11.7079 1.45833 11.6667C1.45833 11.6168 1.46252 11.5678 1.47057 11.5201C1.48824 10.4617 1.53144 9.54791 1.63699 8.76289C1.82089 7.39506 2.20836 6.28796 3.08145 5.41487C3.95454 4.54178 5.06164 4.15431 6.42947 3.97041C7.75855 3.79172 9.45679 3.79173 11.6008 3.79175ZM3.21065 12.5417C3.20843 12.9949 3.20833 13.4799 3.20833 14.0001C3.20833 16.2247 3.21019 17.8052 3.37138 19.0041C3.52919 20.1779 3.82514 20.8541 4.31888 21.3479C4.81263 21.8416 5.48888 22.1376 6.66265 22.2954C7.86159 22.4566 9.44204 22.4584 11.6667 22.4584H16.3333C18.558 22.4584 20.1384 22.4566 21.3373 22.2954C22.5111 22.1376 23.1874 21.8416 23.6811 21.3479C24.1749 20.8541 24.4708 20.1779 24.6286 19.0041C24.7898 17.8052 24.7917 16.2247 24.7917 14.0001C24.7917 13.4799 24.7916 12.9949 24.7893 12.5417H3.21065ZM24.7612 10.7917H3.23875C3.26157 10.1072 3.3015 9.51581 3.37138 8.99607C3.52919 7.8223 3.82514 7.14605 4.31888 6.6523C4.81263 6.15856 5.48888 5.86261 6.66265 5.7048C7.86159 5.54361 9.44204 5.54175 11.6667 5.54175H16.3333C18.558 5.54175 20.1384 5.54361 21.3373 5.7048C22.5111 5.86261 23.1874 6.15856 23.6811 6.6523C24.1749 7.14605 24.4708 7.8223 24.6286 8.99607C24.6985 9.51581 24.7384 10.1072 24.7612 10.7917ZM6.125 18.6667C6.125 18.1835 6.51675 17.7917 7 17.7917H11.6667C12.1499 17.7917 12.5417 18.1835 12.5417 18.6667C12.5417 19.15 12.1499 19.5417 11.6667 19.5417H7C6.51675 19.5417 6.125 19.15 6.125 18.6667ZM13.7083 18.6667C13.7083 18.1835 14.1001 17.7917 14.5833 17.7917H16.3333C16.8166 17.7917 17.2083 18.1835 17.2083 18.6667C17.2083 19.15 16.8166 19.5417 16.3333 19.5417H14.5833C14.1001 19.5417 13.7083 19.15 13.7083 18.6667Z" fill="#111111"/>
</svg>
