<svg width="16" height="16" viewBox="0 0 16 16" fill="none" xmlns="http://www.w3.org/2000/svg">
<path fill-rule="evenodd" clip-rule="evenodd" d="M10.3287 4.62335C10.5367 4.80496 10.5581 5.12081 10.3765 5.32884L5.13841 11.3288C5.04346 11.4376 4.90613 11.5 4.76175 11.5C4.61737 11.5 4.48004 11.4376 4.38509 11.3288L2.28985 8.92884C2.10825 8.72081 2.12966 8.40495 2.33768 8.22335C2.5457 8.04174 2.86156 8.06315 3.04317 8.27118L4.76175 10.2397L9.62319 4.67118C9.80479 4.46316 10.1207 4.44174 10.3287 4.62335Z" fill="#446AEF"/>
<path fill-rule="evenodd" clip-rule="evenodd" d="M13.6781 4.67964C13.8781 4.87009 13.8858 5.18658 13.6954 5.38654L7.98092 11.3865C7.87992 11.4926 7.73752 11.549 7.59131 11.5409C7.44509 11.5329 7.30977 11.4611 7.22105 11.3446L6.9355 10.9696C6.76821 10.7499 6.8107 10.4362 7.0304 10.2689C7.21913 10.1252 7.47726 10.1363 7.65233 10.2816L12.9712 4.69687C13.1617 4.49691 13.4782 4.4892 13.6781 4.67964Z" fill="#446AEF"/>
</svg>
