<svg width="22" height="22" viewBox="0 0 22 22" fill="none" xmlns="http://www.w3.org/2000/svg">
<path fill-rule="evenodd" clip-rule="evenodd" d="M3.89575 7.80509C3.89575 4.0816 7.12376 1.14584 10.9999 1.14584C14.8761 1.14584 18.1041 4.0816 18.1041 7.80509C18.1041 11.2986 15.9381 15.4001 12.4435 16.8935C11.526 17.2855 10.4738 17.2855 9.55636 16.8935C6.06173 15.4001 3.89575 11.2986 3.89575 7.80509ZM10.9999 2.52084C7.78842 2.52084 5.27075 4.93238 5.27075 7.80509C5.27075 10.8561 7.20073 14.3915 10.0967 15.6291C10.669 15.8737 11.3308 15.8737 11.9031 15.6291C14.7991 14.3915 16.7291 10.8561 16.7291 7.80509C16.7291 4.93238 14.2114 2.52084 10.9999 2.52084ZM10.9999 7.10418C10.3671 7.10418 9.85409 7.61718 9.85409 8.25001C9.85409 8.88284 10.3671 9.39584 10.9999 9.39584C11.6327 9.39584 12.1458 8.88284 12.1458 8.25001C12.1458 7.61718 11.6327 7.10418 10.9999 7.10418ZM8.47909 8.25001C8.47909 6.85779 9.6077 5.72918 10.9999 5.72918C12.3921 5.72918 13.5208 6.85779 13.5208 8.25001C13.5208 9.64223 12.3921 10.7708 10.9999 10.7708C9.6077 10.7708 8.47909 9.64223 8.47909 8.25001ZM3.29571 13.7469C3.55057 14.0283 3.52901 14.4631 3.24756 14.718C2.72717 15.1892 2.52075 15.6402 2.52075 16.0417C2.52075 16.7417 3.18443 17.6044 4.80023 18.3315C6.3515 19.0296 8.54281 19.4792 10.9999 19.4792C13.457 19.4792 15.6483 19.0296 17.1996 18.3315C18.8154 17.6044 19.4791 16.7417 19.4791 16.0417C19.4791 15.6402 19.2727 15.1892 18.7523 14.718C18.4708 14.4631 18.4493 14.0283 18.7041 13.7469C18.959 13.4654 19.3937 13.4439 19.6752 13.6987C20.3746 14.3321 20.8541 15.126 20.8541 16.0417C20.8541 17.6198 19.4657 18.8196 17.7639 19.5854C15.9974 20.3803 13.6054 20.8542 10.9999 20.8542C8.39442 20.8542 6.00239 20.3803 4.23598 19.5854C2.5341 18.8196 1.14575 17.6198 1.14575 16.0417C1.14575 15.126 1.62521 14.3321 2.32463 13.6987C2.60609 13.4439 3.04085 13.4654 3.29571 13.7469Z" fill="#111111"/>
</svg>
