<svg width="22" height="22" viewBox="0 0 22 22" fill="none" xmlns="http://www.w3.org/2000/svg">
<path fill-rule="evenodd" clip-rule="evenodd" d="M11 2.52087C6.31707 2.52087 2.52081 6.31713 2.52081 11C2.52081 15.683 6.31707 19.4792 11 19.4792C15.6829 19.4792 19.4791 15.683 19.4791 11C19.4791 6.31713 15.6829 2.52087 11 2.52087ZM1.14581 11C1.14581 5.55773 5.55767 1.14587 11 1.14587C16.4423 1.14587 20.8541 5.55773 20.8541 11C20.8541 16.4423 16.4423 20.8542 11 20.8542C5.55767 20.8542 1.14581 16.4423 1.14581 11ZM11 6.64587C11.3797 6.64587 11.6875 6.95368 11.6875 7.33337V10.7153L13.7778 12.8056C14.0463 13.0741 14.0463 13.5094 13.7778 13.7778C13.5093 14.0463 13.074 14.0463 12.8055 13.7778L10.5138 11.4862C10.3849 11.3572 10.3125 11.1824 10.3125 11V7.33337C10.3125 6.95368 10.6203 6.64587 11 6.64587Z" fill="#1C274C"/>
</svg>
