<svg width="22" height="22" viewBox="0 0 22 22" fill="none" xmlns="http://www.w3.org/2000/svg">
<path d="M15.5833 12.8333C16.0895 12.8333 16.4999 12.4229 16.4999 11.9167C16.4999 11.4104 16.0895 11 15.5833 11C15.077 11 14.6666 11.4104 14.6666 11.9167C14.6666 12.4229 15.077 12.8333 15.5833 12.8333Z" fill="#111111"/>
<path d="M15.5833 16.5C16.0895 16.5 16.4999 16.0896 16.4999 15.5833C16.4999 15.0771 16.0895 14.6667 15.5833 14.6667C15.077 14.6667 14.6666 15.0771 14.6666 15.5833C14.6666 16.0896 15.077 16.5 15.5833 16.5Z" fill="#111111"/>
<path d="M11.9166 11.9167C11.9166 12.4229 11.5062 12.8333 10.9999 12.8333C10.4937 12.8333 10.0833 12.4229 10.0833 11.9167C10.0833 11.4104 10.4937 11 10.9999 11C11.5062 11 11.9166 11.4104 11.9166 11.9167Z" fill="#111111"/>
<path d="M11.9166 15.5833C11.9166 16.0896 11.5062 16.5 10.9999 16.5C10.4937 16.5 10.0833 16.0896 10.0833 15.5833C10.0833 15.0771 10.4937 14.6667 10.9999 14.6667C11.5062 14.6667 11.9166 15.0771 11.9166 15.5833Z" fill="#111111"/>
<path d="M6.41659 12.8333C6.92285 12.8333 7.33325 12.4229 7.33325 11.9167C7.33325 11.4104 6.92285 11 6.41659 11C5.91033 11 5.49992 11.4104 5.49992 11.9167C5.49992 12.4229 5.91033 12.8333 6.41659 12.8333Z" fill="#111111"/>
<path d="M6.41659 16.5C6.92285 16.5 7.33325 16.0896 7.33325 15.5833C7.33325 15.0771 6.92285 14.6667 6.41659 14.6667C5.91033 14.6667 5.49992 15.0771 5.49992 15.5833C5.49992 16.0896 5.91033 16.5 6.41659 16.5Z" fill="#111111"/>
<path fill-rule="evenodd" clip-rule="evenodd" d="M6.41659 1.60416C6.79628 1.60416 7.10409 1.91196 7.10409 2.29166V2.99082C7.71092 2.97914 8.37947 2.97915 9.11476 2.97916H12.885C13.6203 2.97915 14.2889 2.97914 14.8958 2.99082V2.29166C14.8958 1.91196 15.2036 1.60416 15.5833 1.60416C15.9629 1.60416 16.2708 1.91196 16.2708 2.29166V3.04982C16.509 3.06799 16.7347 3.09082 16.9482 3.11953C18.0229 3.26402 18.8928 3.56846 19.5788 4.25446C20.2648 4.94046 20.5692 5.81033 20.7137 6.88505C20.8541 7.92932 20.8541 9.26364 20.8541 10.9482V12.885C20.8541 14.5696 20.8541 15.904 20.7137 16.9483C20.5692 18.023 20.2648 18.8929 19.5788 19.5789C18.8928 20.2648 18.0229 20.5693 16.9482 20.7138C15.9039 20.8542 14.5696 20.8542 12.885 20.8542H9.11488C7.43028 20.8542 6.09592 20.8542 5.05165 20.7138C3.97693 20.5693 3.10706 20.2648 2.42106 19.5789C1.73506 18.8929 1.43062 18.023 1.28613 16.9483C1.14573 15.904 1.14574 14.5697 1.14575 12.885V10.9483C1.14574 9.26366 1.14573 7.92933 1.28613 6.88505C1.43062 5.81033 1.73506 4.94046 2.42106 4.25446C3.10706 3.56846 3.97693 3.26402 5.05165 3.11953C5.26516 3.09082 5.49081 3.06799 5.72909 3.04982V2.29166C5.72909 1.91196 6.03689 1.60416 6.41659 1.60416ZM5.23486 4.48227C4.31262 4.60626 3.78127 4.83879 3.39333 5.22673C3.00539 5.61468 2.77286 6.14602 2.64886 7.06827C2.62787 7.22445 2.61031 7.38888 2.59563 7.56249H19.4042C19.3895 7.38888 19.372 7.22446 19.351 7.06827C19.227 6.14602 18.9944 5.61468 18.6065 5.22673C18.2186 4.83879 17.6872 4.60626 16.765 4.48227C15.8229 4.35562 14.5812 4.35416 12.8333 4.35416H9.16659C7.41867 4.35416 6.17689 4.35562 5.23486 4.48227ZM2.52075 11C2.52075 10.2171 2.52105 9.53582 2.53275 8.93749H19.4671C19.4788 9.53582 19.4791 10.2171 19.4791 11V12.8333C19.4791 14.5812 19.4776 15.823 19.351 16.765C19.227 17.6873 18.9944 18.2186 18.6065 18.6066C18.2186 18.9945 17.6872 19.2271 16.765 19.351C15.8229 19.4777 14.5812 19.4792 12.8333 19.4792H9.16659C7.41867 19.4792 6.17689 19.4777 5.23486 19.351C4.31262 19.2271 3.78127 18.9945 3.39333 18.6066C3.00539 18.2186 2.77286 17.6873 2.64886 16.765C2.52221 15.823 2.52075 14.5812 2.52075 12.8333V11Z" fill="#111111"/>
</svg>
