<svg width="28" height="28" viewBox="0 0 28 28" fill="none" xmlns="http://www.w3.org/2000/svg">
<path fill-rule="evenodd" clip-rule="evenodd" d="M21.2917 8.16675C21.2917 10.583 19.3329 12.5417 16.9167 12.5417C14.5004 12.5417 12.5417 10.583 12.5417 8.16675C12.5417 5.7505 14.5004 3.79175 16.9167 3.79175C19.3329 3.79175 21.2917 5.7505 21.2917 8.16675ZM16.9167 10.7917C18.3664 10.7917 19.5417 9.61649 19.5417 8.16675C19.5417 6.717 18.3664 5.54175 16.9167 5.54175C15.4669 5.54175 14.2917 6.717 14.2917 8.16675C14.2917 9.61649 15.4669 10.7917 16.9167 10.7917Z" fill="#111111"/>
<path fill-rule="evenodd" clip-rule="evenodd" d="M6.70834 19.8334C6.70834 22.2497 8.6671 24.2084 11.0833 24.2084C13.4996 24.2084 15.4583 22.2497 15.4583 19.8334C15.4583 17.4172 13.4996 15.4584 11.0833 15.4584C8.6671 15.4584 6.70834 17.4172 6.70834 19.8334ZM11.0833 22.4584C9.6336 22.4584 8.45834 21.2832 8.45834 19.8334C8.45834 18.3837 9.6336 17.2084 11.0833 17.2084C12.5331 17.2084 13.7083 18.3837 13.7083 19.8334C13.7083 21.2832 12.5331 22.4584 11.0833 22.4584Z" fill="#111111"/>
<path d="M16.625 19.785C16.625 19.3018 17.0168 18.91 17.5 18.91H25.6667C26.1499 18.91 26.5417 19.3018 26.5417 19.785C26.5417 20.2683 26.1499 20.66 25.6667 20.66H17.5C17.0168 20.66 16.625 20.2683 16.625 19.785Z" fill="#111111"/>
<path d="M10.5 7.24336C10.9833 7.24336 11.375 7.63511 11.375 8.11836C11.375 8.6016 10.9833 8.99335 10.5 8.99335L2.33334 8.99335C1.85009 8.99335 1.45834 8.6016 1.45834 8.11835C1.45834 7.63511 1.85009 7.24335 2.33334 7.24335L10.5 7.24336Z" fill="#111111"/>
<path d="M1.45834 19.785C1.45834 19.3018 1.85009 18.91 2.33334 18.91H4.66668C5.14993 18.91 5.54168 19.3018 5.54168 19.785C5.54168 20.2683 5.14993 20.66 4.66668 20.66H2.33334C1.85009 20.66 1.45834 20.2683 1.45834 19.785Z" fill="#111111"/>
<path d="M25.6667 7.24336C26.1499 7.24336 26.5417 7.63511 26.5417 8.11836C26.5417 8.6016 26.1499 8.99335 25.6667 8.99335H23.3333C22.8501 8.99335 22.4583 8.6016 22.4583 8.11835C22.4583 7.63511 22.8501 7.24336 23.3333 7.24336H25.6667Z" fill="#111111"/>
</svg>
