<svg width="28" height="28" viewBox="0 0 28 28" fill="none" xmlns="http://www.w3.org/2000/svg">
<g clip-path="url(#clip0_141_1449)">
<path d="M19.92 5.29324C20.2005 5.4552 20.2966 5.81389 20.1347 6.0944L19.4114 7.34726L20.7112 7.78698C21.958 8.20877 23.0553 8.9841 23.8692 10.0185L23.9753 10.1533C24.7884 11.1866 25.9064 11.9374 27.1705 12.299C27.7574 12.4669 28.0302 13.1416 27.725 13.6702L24.8446 18.6593C24.5927 19.0956 24.0761 19.3045 23.5917 19.1659L23.4255 19.1184C22.0542 18.7261 20.8413 17.9116 19.9593 16.7907C19.1453 15.7563 18.0481 14.981 16.8013 14.5592L15.5014 14.1195L9.96888 23.7021C9.80693 23.9826 9.44824 24.0787 9.16772 23.9168C8.88721 23.7548 8.7911 23.3961 8.95305 23.1156L19.1189 5.50791C19.2808 5.2274 19.6395 5.13129 19.92 5.29324Z" fill="#111111"/>
<path d="M8.07998 5.29324C7.79946 5.4552 7.70335 5.81389 7.86531 6.0944L8.58864 7.34726L7.28882 7.78698C6.04198 8.20877 4.94474 8.9841 4.13078 10.0185L4.02472 10.1533C3.21164 11.1866 2.0936 11.9374 0.82946 12.299C0.242612 12.4669 -0.0302253 13.1416 0.274968 13.6702L3.15542 18.6593C3.40734 19.0956 3.92388 19.3045 4.40829 19.1659L4.57449 19.1184C5.94583 18.7261 7.15868 17.9116 8.04071 16.7907C8.85466 15.7563 9.95191 14.981 11.1987 14.5592L12.4986 14.1195L18.0311 23.7021C18.1931 23.9826 18.5518 24.0787 18.8323 23.9168C19.1128 23.7548 19.2089 23.3961 19.0469 23.1156L8.88114 5.50791C8.71918 5.2274 8.36049 5.13129 8.07998 5.29324Z" fill="#111111"/>
</g>
<defs>
<clipPath id="clip0_141_1449">
<rect width="28" height="28" fill="white"/>
</clipPath>
</defs>
</svg>
