<svg width="28" height="28" viewBox="0 0 28 28" fill="none" xmlns="http://www.w3.org/2000/svg">
<path d="M20.5073 5.17015L18.174 3.94567C16.1258 2.87081 15.1016 2.33337 14 2.33337C12.8983 2.33337 11.8742 2.87081 9.826 3.94567L9.45066 4.14264L19.8609 10.0913L24.547 7.74825C23.7931 6.89445 22.5767 6.2561 20.5073 5.17015Z" fill="#111111"/>
<path d="M25.3731 9.29178L20.7083 11.6242V15.1667C20.7083 15.65 20.3166 16.0417 19.8333 16.0417C19.3501 16.0417 18.9583 15.65 18.9583 15.1667V12.4992L14.875 14.5408V25.5547C15.7126 25.3461 16.6655 24.846 18.174 24.0544L20.5073 22.8299C23.0176 21.5126 24.2727 20.8539 24.9697 19.6703C25.6667 18.4867 25.6667 17.0139 25.6667 14.0683V13.9318C25.6667 11.7237 25.6667 10.3432 25.3731 9.29178Z" fill="#111111"/>
<path d="M13.125 25.5547V14.5408L2.62691 9.29178C2.33333 10.3432 2.33333 11.7237 2.33333 13.9318V14.0683C2.33333 17.0139 2.33333 18.4867 3.03029 19.6703C3.72725 20.8539 4.98239 21.5126 7.49265 22.8299L9.826 24.0544C11.3344 24.846 12.2874 25.3461 13.125 25.5547Z" fill="#111111"/>
<path d="M3.45297 7.74825L14 13.0218L17.9797 11.0319L7.61199 5.10753L7.49267 5.17014C5.4233 6.2561 4.20688 6.89445 3.45297 7.74825Z" fill="#111111"/>
</svg>
