<svg width="24" height="24" viewBox="0 0 24 24" fill="none" xmlns="http://www.w3.org/2000/svg">
<path d="M15.0001 19C14.8685 19.0008 14.738 18.9755 14.6162 18.9258C14.4943 18.876 14.3835 18.8027 14.2901 18.71L8.29006 12.71C8.10381 12.5226 7.99927 12.2692 7.99927 12.005C7.99927 11.7408 8.10381 11.4874 8.29006 11.3L14.2901 5.3C14.4814 5.13617 14.7274 5.05056 14.9791 5.06029C15.2308 5.07001 15.4695 5.17434 15.6476 5.35243C15.8257 5.53053 15.9301 5.76927 15.9398 6.02094C15.9495 6.27262 15.8639 6.5187 15.7001 6.71L10.4101 12L15.7001 17.29C15.8405 17.4293 15.9365 17.6071 15.9758 17.8009C16.0152 17.9947 15.9963 18.1958 15.9213 18.3789C15.8464 18.5619 15.7189 18.7186 15.5549 18.8292C15.3909 18.9397 15.1978 18.9992 15.0001 19Z" fill="black"/>
</svg>
