<svg width="24" height="24" viewBox="0 0 24 24" fill="none" xmlns="http://www.w3.org/2000/svg">
<path d="M9.00018 19C9.13179 19.0008 9.26225 18.9756 9.38409 18.9258C9.50593 18.876 9.61674 18.8027 9.71018 18.71L15.7102 12.71C15.8964 12.5227 16.001 12.2692 16.001 12.005C16.001 11.7408 15.8964 11.4874 15.7102 11.3L9.71018 5.30003C9.51888 5.1362 9.27281 5.05059 9.02113 5.06032C8.76945 5.07004 8.53071 5.17437 8.35262 5.35246C8.17453 5.53056 8.07019 5.7693 8.06047 6.02097C8.05075 6.27265 8.13636 6.51873 8.30018 6.71003L13.5902 12L8.30018 17.29C8.15976 17.4293 8.06379 17.6071 8.02441 17.8009C7.98502 17.9947 8.00399 18.1958 8.07892 18.3789C8.15384 18.5619 8.28136 18.7186 8.44534 18.8292C8.60932 18.9397 8.80241 18.9992 9.00018 19Z" fill="black"/>
</svg>
