<svg width="22" height="26" viewBox="0 0 22 26" fill="none" xmlns="http://www.w3.org/2000/svg">
<path d="M20.0464 5.48331C19.2881 3.98827 18.1662 2.70784 16.7837 1.75974C15.4013 0.811642 13.8026 0.226292 12.1348 0.0575074C11.3803 -0.0181926 10.6202 -0.0181926 9.86572 0.0575074C8.19793 0.226403 6.59933 0.811736 5.21682 1.75972C3.8343 2.70771 2.7122 3.98795 1.95362 5.48281C0.999207 7.39016 0.630559 9.53728 0.894103 11.6537C1.15765 13.7702 2.0416 15.7614 3.43462 17.3764L10.2275 25.6352C10.3213 25.7493 10.4393 25.8412 10.5728 25.9044C10.7064 25.9675 10.8523 26.0002 11 26.0002C11.1477 26.0002 11.2936 25.9675 11.4272 25.9044C11.5608 25.8412 11.6787 25.7493 11.7725 25.6352L18.5654 17.3764C19.9584 15.7614 20.8424 13.7704 21.1059 11.654C21.3694 9.53762 21.0008 7.39058 20.0464 5.48331ZM11 13.9999C10.2089 13.9999 9.43553 13.7653 8.77774 13.3258C8.11994 12.8863 7.60725 12.2615 7.3045 11.5306C7.00175 10.7997 6.92253 9.99547 7.07688 9.21955C7.23122 8.44362 7.61218 7.73089 8.17159 7.17148C8.731 6.61207 9.44373 6.23111 10.2197 6.07677C10.9956 5.92243 11.7998 6.00164 12.5307 6.30439C13.2617 6.60714 13.8864 7.11983 14.3259 7.77763C14.7654 8.43542 15 9.20878 15 9.99991C14.9988 11.0604 14.5769 12.0771 13.8271 12.827C13.0772 13.5768 12.0605 13.9987 11 13.9999Z" fill="#CBCBCB"/>
</svg>
