<svg width="24" height="24" viewBox="0 0 24 24" fill="none" xmlns="http://www.w3.org/2000/svg">
<path d="M12 20.751C9.66295 20.751 7.46395 19.842 5.81395 18.189C4.16095 16.536 3.25195 14.34 3.25195 12.003C3.25195 9.666 4.16095 7.467 5.81395 5.817C7.46695 4.164 9.66295 3.255 12 3.255C12.414 3.255 12.75 3.591 12.75 4.005C12.75 4.419 12.414 4.755 12 4.755C8.00095 4.755 4.74895 8.00701 4.74895 12.006C4.74895 16.005 8.00095 19.257 12 19.257C12.414 19.257 12.75 19.593 12.75 20.007C12.75 20.415 12.414 20.751 12 20.751Z" fill="#111111"/>
<path d="M17.001 15.75C16.809 15.75 16.617 15.678 16.47 15.531C16.176 15.237 16.176 14.763 16.47 14.469L18.189 12.75H9.99902C9.58502 12.75 9.24902 12.414 9.24902 12C9.24902 11.586 9.58502 11.25 9.99902 11.25H18.189L16.47 9.53104C16.176 9.23704 16.176 8.76304 16.47 8.46904C16.764 8.17504 17.238 8.17504 17.532 8.46904L20.532 11.469C20.679 11.616 20.751 11.808 20.751 12C20.751 12.192 20.679 12.384 20.532 12.531L17.532 15.531C17.385 15.678 17.193 15.75 17.001 15.75Z" fill="#111111"/>
</svg>
