<svg width="48" height="48" viewBox="0 0 48 48" fill="none" xmlns="http://www.w3.org/2000/svg">
<path fill-rule="evenodd" clip-rule="evenodd" d="M23.6628 36.7055C24.5301 36.6854 25.418 36.1691 25.7942 35.1872L31.7233 19.7137C32.4115 17.9175 30.7225 16.2285 28.9263 16.9167L13.4528 22.8458C12.4709 23.2221 11.9546 24.1099 11.9345 24.9772C11.9142 25.8519 12.4051 26.7561 13.4312 27.0679L19.3009 28.8514C19.538 28.9235 19.7165 29.102 19.7886 29.3391L21.5722 35.2088C21.8839 36.2349 22.7882 36.7258 23.6628 36.7055ZM22.8878 34.8091L21.1042 28.9393C20.8988 28.2633 20.3767 27.7412 19.7007 27.5358L13.8309 25.7523C13.4772 25.6448 13.301 25.3565 13.3091 25.0091C13.3173 24.6544 13.5248 24.2907 13.9448 24.1298L29.4183 18.2007C30.1035 17.9382 30.7018 18.5365 30.4393 19.2217L24.5102 34.6952C24.3493 35.1152 23.9856 35.3227 23.6309 35.3309C23.2835 35.339 22.9952 35.1628 22.8878 34.8091Z" fill="#111111"/>
</svg>
