<svg width="28" height="28" viewBox="0 0 28 28" fill="none" xmlns="http://www.w3.org/2000/svg">
<path d="M2.33325 18.8341V5.83069C2.33325 4.54949 3.36727 3.50869 4.64605 3.58729C5.78515 3.6573 7.13232 3.79568 8.16659 4.0686C9.39066 4.39161 10.8454 5.0796 11.9959 5.68795C12.3541 5.87738 12.735 6.00877 13.1249 6.08284L13.1249 23.7912C12.7715 23.7133 12.4267 23.5876 12.1011 23.414C10.935 22.7925 9.42828 22.0718 8.16659 21.7388C7.14376 21.4689 5.81491 21.3306 4.68392 21.2599C3.39031 21.179 2.33325 20.1302 2.33325 18.8341Z" fill="white"/>
<path d="M14.8749 23.7912C15.2284 23.7133 15.5732 23.5876 15.8988 23.414C17.0648 22.7925 18.5716 22.0718 19.8333 21.7388C20.8561 21.4689 22.1849 21.3306 23.3159 21.2599C24.6095 21.179 25.6666 20.1302 25.6666 18.8341V5.75531C25.6666 4.50412 24.6793 3.47707 23.4289 3.52062C22.1122 3.56649 20.4713 3.70295 19.2499 4.0686C18.191 4.38561 16.9578 5.02147 15.9527 5.60313C15.6127 5.79994 15.2492 5.94449 14.8749 6.03615L14.8749 23.7912Z" fill="white"/>
</svg>
