<svg width="29" height="28" viewBox="0 0 29 28" fill="none" xmlns="http://www.w3.org/2000/svg">
<path fill-rule="evenodd" clip-rule="evenodd" d="M27.0417 5.75535C27.0417 4.04816 25.6821 2.58407 23.8985 2.64619C22.5705 2.69246 20.8345 2.83061 19.4991 3.2304C18.3382 3.57794 17.0324 4.25675 16.0145 4.84586C15.0601 5.39823 13.8719 5.42578 12.905 4.91448C11.7436 4.30036 10.2156 3.57243 8.88992 3.2226C7.76898 2.92681 6.35103 2.78473 5.19982 2.71398C3.38187 2.60225 1.95834 4.08171 1.95834 5.83073V18.8341C1.95834 20.6264 3.40942 22.0256 5.12938 22.1332C6.24794 22.2032 7.50661 22.3377 8.44342 22.5849C9.6014 22.8905 11.0334 23.5699 12.1896 24.1862C13.6284 24.9532 15.3716 24.9532 16.8104 24.1862C17.9666 23.5699 19.3986 22.8905 20.5566 22.5849C21.4934 22.3377 22.7521 22.2032 23.8706 22.1332C25.5906 22.0256 27.0417 20.6264 27.0417 18.8341V5.75535ZM23.9594 4.39513C24.6767 4.37015 25.2917 4.96017 25.2917 5.75535V18.8341C25.2917 19.6342 24.6286 20.3324 23.7614 20.3866C22.618 20.4581 21.2189 20.6002 20.1101 20.8928C18.7447 21.2531 17.1632 22.0151 15.9873 22.6419C15.791 22.7466 15.5856 22.829 15.375 22.8892V6.93233C15.9027 6.8267 16.4158 6.63558 16.8911 6.36049C17.8833 5.78626 19.044 5.19336 20.0009 4.90689C21.1083 4.57538 22.6541 4.4406 23.9594 4.39513ZM13.625 6.97077C13.0942 6.88822 12.5738 6.71896 12.0869 6.46151C10.9473 5.85891 9.56589 5.21088 8.44342 4.91468C7.49584 4.66464 6.21944 4.52995 5.09246 4.46068C4.35284 4.41522 3.70834 5.01735 3.70834 5.83073V18.8341C3.70834 19.6342 4.37136 20.3324 5.23863 20.3866C6.38206 20.4581 7.78108 20.6002 8.88992 20.8928C10.2553 21.2531 11.8368 22.0151 13.0128 22.6419C13.209 22.7466 13.4144 22.829 13.625 22.8892V6.97077Z" fill="#111111"/>
</svg>
