<svg width="28" height="28" viewBox="0 0 28 28" fill="none" xmlns="http://www.w3.org/2000/svg">
<path fill-rule="evenodd" clip-rule="evenodd" d="M7.00861 3.97467C8.96869 2.01459 12.2764 2.16359 13.6411 4.60907L14.3983 5.96582C15.2896 7.56278 14.9098 9.57771 13.6051 10.8983C13.5877 10.9221 13.4956 11.0562 13.4841 11.2905C13.4695 11.5896 13.5757 12.2811 14.6472 13.3526C15.7184 14.4238 16.4098 14.5302 16.709 14.5157C16.9435 14.5043 17.0777 14.4121 17.1015 14.3947C18.4221 13.0901 20.4371 12.7103 22.034 13.6015L23.3908 14.3587C25.8362 15.7235 25.9852 19.0311 24.0252 20.9912C22.9767 22.0397 21.5827 22.9712 19.9444 23.0333C17.5167 23.1254 13.4856 22.4984 9.49349 18.5063C5.50141 14.5143 4.87446 10.4832 4.96649 8.05541C5.0286 6.41717 5.96017 5.02311 7.00861 3.97467ZM12.113 5.4619C11.4142 4.20966 9.53618 3.92197 8.24605 5.21211C7.34148 6.11668 6.7534 7.11513 6.71524 8.1217C6.63849 10.1463 7.13833 13.6763 10.7309 17.2689C14.3235 20.8615 17.8536 21.3614 19.8781 21.2846C20.8847 21.2464 21.8832 20.6584 22.7877 19.7538C24.0779 18.4637 23.7902 16.5857 22.5379 15.8868L21.1812 15.1296C20.3372 14.6586 19.1517 14.8193 18.3195 15.6515L18.3193 15.6517C18.2375 15.7334 17.7174 16.2187 16.794 16.2636C15.8488 16.3096 14.7046 15.8849 13.4098 14.5901C12.1145 13.2948 11.6899 12.1503 11.7362 11.2049C11.7815 10.2815 12.267 9.76163 12.3483 9.68037L12.3483 9.68033C13.1805 8.84813 13.3412 7.66263 12.8702 6.81865L12.113 5.4619Z" fill="#111111"/>
</svg>
