<svg width="28" height="28" viewBox="0 0 28 28" fill="none" xmlns="http://www.w3.org/2000/svg">
<path d="M14.0001 19.8332C17.2217 19.8332 19.8334 17.2215 19.8334 13.9998C19.8334 10.7782 17.2217 8.1665 14.0001 8.1665C10.7784 8.1665 8.16675 10.7782 8.16675 13.9998C8.16675 17.2215 10.7784 19.8332 14.0001 19.8332Z" fill="#A1A1A1"/>
<path d="M14 2.33325C11.6926 2.33325 9.43697 3.01749 7.51839 4.29944C5.59982 5.58139 4.10447 7.40347 3.22145 9.53528C2.33843 11.6671 2.10739 14.0129 2.55755 16.276C3.00771 18.5391 4.11885 20.6179 5.75047 22.2495C7.38208 23.8811 9.46088 24.9923 11.724 25.4424C13.9871 25.8926 16.3329 25.6615 18.4647 24.7785C20.5965 23.8955 22.4186 22.4001 23.7005 20.4816C24.9825 18.563 25.6667 16.3074 25.6667 13.9999C25.6667 12.4678 25.3649 10.9507 24.7786 9.53528C24.1923 8.11981 23.333 6.83369 22.2496 5.75034C21.1663 4.66699 19.8802 3.80763 18.4647 3.22132C17.0492 2.63502 15.5321 2.33325 14 2.33325ZM14 22.1666C12.3848 22.1666 10.8059 21.6876 9.46289 20.7903C8.11989 19.8929 7.07314 18.6174 6.45503 17.1252C5.83691 15.6329 5.67519 13.9909 5.9903 12.4067C6.30541 10.8225 7.08321 9.36734 8.22534 8.22521C9.36747 7.08308 10.8226 6.30528 12.4068 5.99017C13.991 5.67506 15.633 5.83679 17.1253 6.4549C18.6176 7.07302 19.893 8.11976 20.7904 9.46276C21.6877 10.8058 22.1667 12.3847 22.1667 13.9999C22.1667 16.1659 21.3063 18.2431 19.7747 19.7746C18.2432 21.3062 16.166 22.1666 14 22.1666Z" fill="#A1A1A1"/>
</svg>
