<svg width="29" height="28" viewBox="0 0 29 28" fill="none" xmlns="http://www.w3.org/2000/svg">
<path fill-rule="evenodd" clip-rule="evenodd" d="M14.5 1.45825C11.4394 1.45825 8.95833 3.93934 8.95833 6.99992C8.95833 10.0605 11.4394 12.5416 14.5 12.5416C17.5606 12.5416 20.0417 10.0605 20.0417 6.99992C20.0417 3.93934 17.5606 1.45825 14.5 1.45825ZM10.7083 6.99992C10.7083 4.90584 12.4059 3.20825 14.5 3.20825C16.5941 3.20825 18.2917 4.90584 18.2917 6.99992C18.2917 9.094 16.5941 10.7916 14.5 10.7916C12.4059 10.7916 10.7083 9.094 10.7083 6.99992Z" fill="#111111"/>
<path fill-rule="evenodd" clip-rule="evenodd" d="M14.5 14.2916C12.1208 14.2916 9.92377 14.8408 8.29117 15.7737C6.68333 16.6925 5.45833 18.0951 5.45833 19.8333C5.45833 21.5714 6.68333 22.974 8.29117 23.8928C9.92377 24.8257 12.1208 25.3749 14.5 25.3749C16.8792 25.3749 19.0762 24.8257 20.7088 23.8928C22.3167 22.974 23.5417 21.5714 23.5417 19.8333C23.5417 18.0951 22.3167 16.6925 20.7088 15.7737C19.0762 14.8408 16.8792 14.2916 14.5 14.2916ZM7.20833 19.8333C7.20833 18.9941 7.81151 18.0634 9.15942 17.2931C10.4826 16.537 12.3689 16.0416 14.5 16.0416C16.6311 16.0416 18.5174 16.537 19.8406 17.2931C21.1885 18.0634 21.7917 18.9941 21.7917 19.8333C21.7917 20.6724 21.1885 21.6031 19.8406 22.3734C18.5174 23.1295 16.6311 23.6249 14.5 23.6249C12.3689 23.6249 10.4826 23.1295 9.15942 22.3734C7.81151 21.6031 7.20833 20.6724 7.20833 19.8333Z" fill="#111111"/>
</svg>
