<svg width="22" height="22" viewBox="0 0 22 22" fill="none" xmlns="http://www.w3.org/2000/svg">
<g clip-path="url(#clip0_165_996)">
<path d="M17.7447 22L16.5296 20.7849L18.7082 18.6062H7.73511C4.41863 18.6062 1.72047 15.9081 1.72047 12.5916V11H3.43893V12.5916C3.43893 14.9606 5.3662 16.8878 7.73511 16.8878H18.7082L16.5296 14.7092L17.7447 13.494L21.9977 17.747L17.7447 22ZM20.2799 11H18.5615V9.4084C18.5615 7.03945 16.6342 5.11223 14.2653 5.11223H3.29218L5.47081 7.29082L4.25568 8.50599L0.00268555 4.25299L4.25568 0L5.47081 1.21509L3.29218 3.39376H14.2653C17.5818 3.39376 20.2799 6.09193 20.2799 9.4084V11Z" fill="#111111"/>
</g>
<defs>
<clipPath id="clip0_165_996">
<rect width="22" height="22" fill="white"/>
</clipPath>
</defs>
</svg>
