<svg width="32" height="32" viewBox="0 0 32 32" fill="none" xmlns="http://www.w3.org/2000/svg">
<path fill-rule="evenodd" clip-rule="evenodd" d="M13.208 11.5278L11.7414 20.5408H14.0878L15.5545 11.5278H13.208ZM9.76723 11.5278L7.53011 17.7268L7.26548 16.392L7.26567 16.3924L7.20736 16.0932C6.93661 15.5097 6.30955 14.4007 5.12548 13.4543C4.77542 13.1745 4.42255 12.9358 4.08142 12.7318L6.11461 20.5408H8.55936L12.2927 11.5278H9.76723ZM18.9248 14.03C18.9248 13.011 21.21 13.1419 22.2141 13.6952L22.5489 11.7595C22.5489 11.7595 21.5155 11.3665 20.4384 11.3665C19.2739 11.3665 16.5087 11.8757 16.5087 14.3501C16.5087 16.6789 19.7542 16.7078 19.7542 17.9305C19.7542 19.1531 16.8434 18.9346 15.8827 18.1633L15.5336 20.1866C15.5336 20.1866 16.5813 20.6959 18.1825 20.6959C19.7835 20.6959 22.1995 19.8665 22.1995 17.6103C22.1995 15.267 18.9248 15.0487 18.9248 14.03ZM28.4998 11.5278H26.6132C25.7421 11.5278 25.53 12.1995 25.53 12.1995L22.0307 20.5408H24.4764L24.9657 19.2021H27.9487L28.2239 20.5408H30.3784L28.4998 11.5278ZM25.6419 17.3525L26.8749 13.9796L27.5685 17.3525H25.6419Z" fill="#005BAC"/>
<path fill-rule="evenodd" clip-rule="evenodd" d="M6.5083 12.3764C6.5083 12.3764 6.41117 11.563 5.3743 11.563H1.60724L1.56311 11.7159C1.56311 11.7159 3.37386 12.085 5.11105 13.4679C6.77117 14.7897 7.31274 16.4373 7.31274 16.4373L6.5083 12.3764Z" fill="#F6AC1D"/>
</svg>
