<svg width="24" height="24" viewBox="0 0 24 24" fill="none" xmlns="http://www.w3.org/2000/svg">
<g clip-path="url(#clip0_132_1278)">
<path d="M20.9488 8.21606H2.1397C1.67536 8.21606 1.29895 8.59247 1.29895 9.05681V11.3153H21.7896V9.05681C21.7896 8.59252 21.4132 8.21606 20.9488 8.21606Z" fill="#FFB125"/>
<path d="M14.1202 3.5468L12.4169 20.7905C12.3741 21.2236 11.9882 21.5401 11.5551 21.4973L2.92443 20.6447C2.49126 20.6019 2.17481 20.2161 2.21761 19.7829L3.92095 2.53932C3.96375 2.10615 4.34958 1.78969 4.78275 1.83249L13.4134 2.68505C13.8465 2.7278 14.1629 3.11363 14.1202 3.5468Z" fill="#B6FA4C"/>
<path d="M13.4134 2.68505L4.78275 1.83249C4.34958 1.78969 3.96375 2.10615 3.92096 2.53932L3.76814 4.08638C3.89761 4.02062 4.04644 3.98916 4.20164 4.00449L12.8323 4.85705C13.2654 4.89985 13.5819 5.28568 13.5391 5.71885L11.9886 21.4155C12.2204 21.2978 12.3894 21.0685 12.4168 20.7906L14.1202 3.5469C14.163 3.11368 13.8465 2.72785 13.4134 2.68505Z" fill="#A8E83A"/>
<path d="M4.83572 4.98439L3.59311 17.5641C3.57534 17.7441 3.66009 17.9196 3.81365 18.0154C4.23679 18.2792 4.56445 18.6749 4.7445 19.1396C4.80923 19.3066 4.96382 19.4218 5.14204 19.4394L9.61612 19.8814C9.79434 19.899 9.96853 19.8162 10.0646 19.6651C10.3321 19.2447 10.7309 18.9207 11.1974 18.7447C11.3668 18.6809 11.4842 18.5254 11.502 18.3454L12.7446 5.76565C12.7624 5.58561 12.6776 5.41011 12.5241 5.31439C12.1009 5.05058 11.7733 4.65481 11.5932 4.19014C11.5285 4.02317 11.3739 3.90795 11.1957 3.89033L6.72159 3.44839C6.54337 3.43076 6.36918 3.5135 6.27309 3.66462C6.00562 4.08504 5.60686 4.40909 5.14026 4.58501C4.971 4.64886 4.85353 4.80434 4.83572 4.98439Z" fill="#77DD00"/>
<path d="M12.5242 5.31439C12.101 5.05058 11.7734 4.65481 11.5933 4.19014C11.5286 4.02312 11.374 3.90795 11.1958 3.89033L6.72169 3.44839C6.54347 3.43076 6.36928 3.5135 6.27314 3.66462C6.00567 4.08504 5.60691 4.40909 5.14031 4.58501C4.971 4.64886 4.85353 4.80434 4.83576 4.98439L4.78847 5.46326L10.5856 6.01803C10.7639 6.03565 10.9185 6.15083 10.9832 6.31784C11.1632 6.78247 11.4909 7.17828 11.914 7.44209C12.0676 7.53781 12.1523 7.71331 12.1346 7.89336L11.0568 18.8037C11.103 18.7827 11.1498 18.7628 11.1975 18.7448C11.3668 18.6809 11.4843 18.5255 11.502 18.3454L12.7447 5.7657C12.7625 5.58561 12.6777 5.41011 12.5242 5.31439Z" fill="#73CC00"/>
<path d="M21.438 6.11596L11.6801 20.4348C11.435 20.7944 10.9447 20.8874 10.585 20.6422L3.41831 15.7583C3.05864 15.5132 2.96573 15.0229 3.21084 14.6632L12.9688 0.34438C13.2139 -0.0152918 13.7042 -0.108198 14.0639 0.136911L21.2306 5.02086C21.5903 5.26597 21.6832 5.75624 21.438 6.11596Z" fill="#B6FA4C"/>
<path d="M21.2306 5.02088L14.0639 0.136924C13.7042 -0.108186 13.2139 -0.0153262 12.9688 0.344393L12.1342 1.56919C12.2066 1.59183 12.277 1.62521 12.343 1.67016L19.5097 6.55411C19.8694 6.79922 19.9623 7.28953 19.7172 7.64921L10.7939 20.7433C11.1164 20.8441 11.48 20.7285 11.6802 20.4348L21.4381 6.11597C21.6832 5.75625 21.5903 5.26599 21.2306 5.02088Z" fill="#A8E83A"/>
<path d="M12.6001 2.92885L5.48143 13.3748C5.37952 13.5243 5.36986 13.719 5.45874 13.8766C5.70375 14.3109 5.80168 14.8152 5.73704 15.3094C5.71383 15.4869 5.79432 15.6622 5.9423 15.763L9.65752 18.2948C9.8055 18.3957 9.99802 18.4065 10.1548 18.3199C10.5911 18.0791 11.0963 17.9858 11.5901 18.0549C11.7693 18.08 11.9469 17.9998 12.0488 17.8503L19.1675 7.40438C19.2694 7.25485 19.2791 7.06023 19.1902 6.90263C18.9451 6.46834 18.8472 5.96396 18.9119 5.46985C18.9351 5.29229 18.8546 5.11707 18.7066 5.01624L14.9914 2.48438C14.8434 2.38351 14.6509 2.37268 14.4941 2.45926C14.0578 2.7001 13.5526 2.79343 13.0588 2.72429C12.8796 2.69912 12.702 2.77932 12.6001 2.92885Z" fill="#77DD00"/>
<path d="M19.1902 6.90262C18.9451 6.46832 18.8473 5.96394 18.9119 5.46984C18.9351 5.29227 18.8546 5.11705 18.7066 5.01618L14.9914 2.48437C14.8434 2.38354 14.6509 2.37266 14.4941 2.45924C14.0579 2.70009 13.5526 2.79341 13.0588 2.72423C12.8796 2.69915 12.702 2.7793 12.6 2.92883L12.3034 3.36416L16.9465 6.49401C17.0945 6.59488 17.175 6.77005 17.1518 6.94762C17.0872 7.44173 17.1851 7.9461 17.4301 8.3804C17.519 8.53799 17.5093 8.73266 17.4074 8.88215L11.1698 18.0354C11.3097 18.0292 11.4503 18.0353 11.5902 18.0549C11.7694 18.0801 11.947 17.9999 12.0489 17.8503L19.1675 7.40437C19.2694 7.25484 19.2791 7.06021 19.1902 6.90262Z" fill="#73CC00"/>
<path d="M13.4147 11.9714C14.8228 11.9714 15.9642 10.8299 15.9642 9.42185C15.9642 8.01378 14.8228 6.87231 13.4147 6.87231C12.0066 6.87231 10.8652 8.01378 10.8652 9.42185C10.8652 10.8299 12.0066 11.9714 13.4147 11.9714Z" fill="#B6FA4C"/>
<path d="M21.2401 24H1.59885C0.929198 24 0.386292 23.4571 0.386292 22.7874V10.7878C0.386292 10.1181 0.929151 9.5752 1.59885 9.5752H21.2401C21.9097 9.5752 22.4527 10.1181 22.4527 10.7878V22.7874C22.4527 23.4571 21.9098 24 21.2401 24Z" fill="#FFB125"/>
<path d="M21.2401 9.5752H19.0341C19.7038 9.5752 20.2467 10.1181 20.2467 10.7878V22.7874C20.2467 23.4571 19.7038 24 19.0341 24H21.2401C21.9097 24 22.4526 23.4571 22.4526 22.7874V10.7878C22.4526 10.1181 21.9097 9.5752 21.2401 9.5752Z" fill="#FF901D"/>
<path d="M23.1744 14.4697H18.7537C17.4736 14.4697 16.4359 15.5074 16.4359 16.7876C16.4359 18.0677 17.4736 19.1054 18.7537 19.1054H23.1744C23.417 19.1054 23.6137 18.9087 23.6137 18.6661V14.909C23.6137 14.6665 23.417 14.4697 23.1744 14.4697Z" fill="#FF6D3A"/>
<path d="M23.1744 14.4697H20.9606C21.2032 14.4697 21.3999 14.6664 21.3999 14.909V18.0736C21.3999 18.3324 21.1902 18.5421 20.9314 18.5421H18.7536C17.5689 18.5421 16.5925 17.6531 16.4534 16.5059C16.4422 16.5983 16.4358 16.6921 16.4358 16.7875C16.4358 18.0676 17.4735 19.1053 18.7536 19.1053H20.9606H23.1743C23.417 19.1053 23.6136 18.9086 23.6136 18.666V18.1028V14.909C23.6137 14.6665 23.417 14.4697 23.1744 14.4697Z" fill="#ED5729"/>
<path d="M21.2401 9.5752H1.59885C0.929198 9.5752 0.386292 10.1181 0.386292 10.7878V12.1166H22.4527V10.7878C22.4527 10.1181 21.9098 9.5752 21.2401 9.5752Z" fill="#FF6D3A"/>
<path d="M22.2456 10.1099C22.202 10.0454 22.1523 9.98526 22.0975 9.93041C22.0968 9.92976 22.0962 9.9292 22.0955 9.92854C22.0412 9.87445 21.9818 9.82541 21.918 9.78234C21.9019 9.77146 21.8855 9.76091 21.8688 9.75079C21.844 9.73574 21.8184 9.72182 21.7925 9.70851C21.7757 9.69988 21.7587 9.69168 21.7415 9.6838C21.5886 9.61424 21.4189 9.5752 21.24 9.5752H19.0342C19.7039 9.57524 20.2467 10.1181 20.2467 10.7878V12.1165H22.4526V10.7878C22.4526 10.5785 22.3996 10.3816 22.3063 10.2098C22.2876 10.1755 22.2673 10.1421 22.2456 10.1099Z" fill="#ED5729"/>
<path d="M1.59885 24.0001H21.2401C21.9097 24.0001 22.4527 23.4572 22.4527 22.7876V21.4587H0.386292V22.7876C0.386292 23.4572 0.929151 24.0001 1.59885 24.0001Z" fill="#FF6D3A"/>
<path d="M20.2467 21.4587V22.7876C20.2467 22.7883 20.2467 22.789 20.2467 22.7896C20.2465 22.9016 20.1528 22.991 20.0408 22.991H1.59885C0.929198 22.991 0.386292 22.4481 0.386292 21.7784V22.7875C0.386292 23.4573 0.929151 24.0001 1.59885 24.0001H19.0342H21.2401C21.2641 24.0001 21.2878 23.9992 21.3114 23.9979C21.3187 23.9974 21.3261 23.9967 21.3334 23.9962C21.3498 23.9949 21.3662 23.9934 21.3824 23.9915C21.3905 23.9906 21.3986 23.9895 21.4066 23.9884C21.4228 23.9862 21.4388 23.9836 21.4548 23.9808C21.4619 23.9795 21.469 23.9784 21.476 23.977C21.4986 23.9726 21.521 23.9677 21.543 23.962H21.5431C21.5528 23.9595 21.5623 23.9565 21.5719 23.9538C21.6199 23.9402 21.6667 23.924 21.7121 23.9049C21.7303 23.8972 21.7482 23.8891 21.7658 23.8806C21.7835 23.8721 21.8009 23.8631 21.8181 23.8538L21.8182 23.8538C21.8525 23.8351 21.8858 23.8149 21.918 23.7931L21.9181 23.7931L21.9181 23.793C21.9456 23.7745 21.972 23.7546 21.9978 23.734C21.999 23.733 22.0003 23.732 22.0014 23.7311C22.0275 23.71 22.0527 23.6877 22.0769 23.6646C22.1055 23.6373 22.1327 23.6087 22.1585 23.5788V23.5788C22.1988 23.532 22.2357 23.4821 22.2686 23.4296C22.2695 23.4281 22.2704 23.4267 22.2713 23.4253C22.2834 23.4058 22.2952 23.386 22.3062 23.3658C22.3062 23.3658 22.3062 23.3657 22.3063 23.3656V23.3655C22.3356 23.3116 22.3608 23.255 22.3817 23.1965C22.3841 23.1898 22.3863 23.183 22.3886 23.1763C22.3936 23.1614 22.3985 23.1463 22.403 23.1311C22.4052 23.1234 22.4074 23.1156 22.4096 23.1078C22.4137 23.0926 22.4176 23.0771 22.4212 23.0616C22.4228 23.0545 22.4246 23.0474 22.4261 23.0403C22.4308 23.0179 22.4351 22.9954 22.4386 22.9726C22.4386 22.9725 22.4386 22.9724 22.4386 22.9722V22.9721C22.4427 22.9454 22.4456 22.9184 22.4479 22.8912C22.4484 22.8843 22.4489 22.8774 22.4495 22.8705C22.4513 22.8431 22.4526 22.8155 22.4526 22.7876V21.7785V21.4588L20.2467 21.4587Z" fill="#ED5729"/>
<path d="M18.8362 17.8641C19.4306 17.8641 19.9124 17.3822 19.9124 16.7879C19.9124 16.1935 19.4306 15.7117 18.8362 15.7117C18.2419 15.7117 17.76 16.1935 17.76 16.7879C17.76 17.3822 18.2419 17.8641 18.8362 17.8641Z" fill="#F2F2F2"/>
</g>
<defs>
<clipPath id="clip0_132_1278">
<rect width="24" height="24" fill="white"/>
</clipPath>
</defs>
</svg>
